<svg width="47" height="47" viewBox="0 0 47 47" fill="none" xmlns="http://www.w3.org/2000/svg">
<mask id="path-1-inside-1_14_11" fill="white">
<path d="M37 42C37 40.1615 36.6379 38.341 35.9343 36.6424C35.2307 34.9439 34.1995 33.4005 32.8995 32.1005C31.5995 30.8005 30.0561 29.7693 28.3576 29.0657C26.659 28.3621 24.8385 28 23 28C21.1615 28 19.341 28.3621 17.6424 29.0657C15.9439 29.7693 14.4005 30.8005 13.1005 32.1005C11.8005 33.4005 10.7693 34.9439 10.0657 36.6424C9.36212 38.341 9 40.1615 9 42H12.3213C12.3213 40.5977 12.5976 39.2091 13.1342 37.9135C13.6709 36.6179 14.4574 35.4407 15.4491 34.4491C16.4407 33.4574 17.6179 32.6709 18.9135 32.1342C20.209 31.5976 21.5977 31.3213 23 31.3213C24.4023 31.3213 25.791 31.5976 27.0865 32.1342C28.3821 32.6709 29.5593 33.4574 30.5509 34.4491C31.5426 35.4407 32.3291 36.6179 32.8658 37.9135C33.4024 39.209 33.6787 40.5977 33.6787 42H37Z"/>
</mask>
<path d="M37 42V46H41L41 42L37 42ZM9 42L5 42L5 46H9V42ZM12.3213 42V46H16.3213L16.3213 42L12.3213 42ZM33.6787 42H29.6787V46H33.6787V42ZM41 42C41 39.6362 40.5344 37.2956 39.6298 35.1117L32.2388 38.1732C32.7413 39.3864 33 40.6868 33 42L41 42ZM39.6298 35.1117C38.7252 32.9278 37.3994 30.9435 35.7279 29.2721L30.0711 34.9289C30.9997 35.8575 31.7362 36.9599 32.2388 38.1732L39.6298 35.1117ZM35.7279 29.2721C34.0565 27.6006 32.0722 26.2748 29.8883 25.3702L26.8268 32.7612C28.0401 33.2638 29.1425 34.0003 30.0711 34.9289L35.7279 29.2721ZM29.8883 25.3702C27.7044 24.4656 25.3638 24 23 24L23 32C24.3132 32 25.6136 32.2587 26.8268 32.7612L29.8883 25.3702ZM23 24C20.6362 24 18.2956 24.4656 16.1117 25.3702L19.1732 32.7612C20.3864 32.2587 21.6868 32 23 32L23 24ZM16.1117 25.3702C13.9278 26.2748 11.9435 27.6006 10.2721 29.2721L15.9289 34.9289C16.8575 34.0003 17.9599 33.2638 19.1732 32.7612L16.1117 25.3702ZM10.2721 29.2721C8.60062 30.9435 7.27475 32.9278 6.37017 35.1117L13.7612 38.1732C14.2638 36.9599 15.0003 35.8575 15.9289 34.9289L10.2721 29.2721ZM6.37017 35.1117C5.46558 37.2956 5 39.6362 5 42L13 42C13 40.6868 13.2587 39.3864 13.7612 38.1732L6.37017 35.1117ZM9 46H12.3213V38H9V46ZM16.3213 42C16.3213 41.1229 16.4941 40.2545 16.8297 39.4442L9.43869 36.3827C8.70102 38.1636 8.32135 40.0724 8.32135 42L16.3213 42ZM16.8297 39.4442C17.1654 38.6339 17.6573 37.8976 18.2775 37.2775L12.6206 31.6206C11.2576 32.9837 10.1764 34.6018 9.43869 36.3827L16.8297 39.4442ZM18.2775 37.2775C18.8976 36.6573 19.6339 36.1654 20.4442 35.8297L17.3827 28.4387C15.6018 29.1764 13.9837 30.2576 12.6206 31.6206L18.2775 37.2775ZM20.4442 35.8297C21.2545 35.4941 22.1229 35.3213 23 35.3213L23 27.3213C21.0724 27.3213 19.1636 27.701 17.3827 28.4387L20.4442 35.8297ZM23 35.3213C23.8771 35.3213 24.7455 35.4941 25.5558 35.8297L28.6173 28.4387C26.8364 27.701 24.9276 27.3213 23 27.3213L23 35.3213ZM25.5558 35.8297C26.3661 36.1654 27.1024 36.6573 27.7225 37.2775L33.3794 31.6206C32.0163 30.2576 30.3982 29.1764 28.6173 28.4387L25.5558 35.8297ZM27.7225 37.2775C28.3427 37.8976 28.8346 38.6339 29.1703 39.4442L36.5613 36.3827C35.8236 34.6018 34.7424 32.9837 33.3794 31.6206L27.7225 37.2775ZM29.1703 39.4442C29.5059 40.2545 29.6787 41.1229 29.6787 42H37.6787C37.6787 40.0724 37.299 38.1636 36.5613 36.3827L29.1703 39.4442ZM33.6787 46H37V38H33.6787V46Z" fill="#628395" mask="url(#path-1-inside-1_14_11)"/>
<circle cx="23.5" cy="23.5" r="21.5" stroke="#BE0AFA" stroke-width="4"/>
<circle cx="23" cy="18" r="6.5" stroke="#628395" stroke-width="3"/>
</svg>
