<svg width="25" height="26" viewBox="0 0 25 26" fill="none" xmlns="http://www.w3.org/2000/svg">
<g clip-path="url(#clip0_37_63)">
<path d="M17.9834 18.8881C17.9636 18.9389 17.9529 18.9937 17.9529 19.0505C17.9529 19.1079 17.9636 19.1627 17.9834 19.2135V23.0666C17.9834 23.6118 17.7473 24.1087 17.3678 24.4686C16.9882 24.8285 16.4647 25.0518 15.8892 25.0518H3.09368C2.5182 25.0518 1.99465 24.8285 1.6151 24.4686C1.23555 24.1087 1 23.6118 1 23.0666V7.73675C1 7.20124 1.22538 6.71395 1.58994 6.35711L1.6151 6.33529C1.99465 5.9754 2.5182 5.75155 3.09368 5.75155H15.8892C16.4647 5.75155 16.9882 5.9754 17.3678 6.33529C17.7473 6.69517 17.9834 7.1916 17.9834 7.73675V18.8881ZM18.9829 19.5246H21.9363C22.7832 19.5246 23.5476 19.1906 24.1017 18.6561C24.6569 18.1196 25 17.38 25 16.574V2.93339C25 2.12834 24.652 1.39538 24.0915 0.863418L24.0894 0.861388C23.5273 0.329429 22.7548 0 21.9063 0H8.86403C8.01445 0 7.24197 0.330444 6.68148 0.861895L6.67987 0.863418C6.11884 1.39538 5.77034 2.12885 5.77034 2.93339V4.80387H3.09368C2.24251 4.80387 1.46842 5.13381 0.908459 5.66475L0.879551 5.69419C0.336189 6.22412 7.37607e-07 6.94592 7.37607e-07 7.73675V23.0666C7.37607e-07 23.8737 0.347966 24.6077 0.907923 25.1386C1.46842 25.6701 2.24251 26 3.09368 26H15.8892C16.7404 26 17.5139 25.6701 18.0744 25.1386C18.6349 24.6077 18.9829 23.8737 18.9829 23.0666V19.5246ZM6.76981 4.80387V2.93339C6.76981 2.38823 7.00589 1.8913 7.38544 1.5309C7.76499 1.17153 8.28801 0.948186 8.86403 0.948186H21.9063C22.4834 0.948186 23.007 1.17051 23.3849 1.52938L23.387 1.53141C23.765 1.88977 24 2.3862 24 2.93339V16.574C24 17.1252 23.7677 17.6293 23.3908 17.9937C23.0187 18.3526 22.5054 18.5769 21.9363 18.5769H18.9829V7.73675C18.9829 6.92968 18.6349 6.19621 18.0744 5.66475C17.5139 5.1333 16.7404 4.80387 15.8892 4.80387H6.76981Z" fill="#3FB950"/>
<path d="M2.15042 16.8003C1.96329 16.6303 1.94876 16.3404 2.11807 16.1527C2.2875 15.9649 2.57656 15.9504 2.76382 16.1203L6.92066 19.9009L16.21 10.1428C16.3845 9.95897 16.6744 9.95163 16.8576 10.1266C17.041 10.3014 17.0482 10.5922 16.8738 10.7761L7.27625 20.8581L7.27563 20.8575C7.10523 21.0372 6.82202 21.0489 6.63758 20.8815L2.15042 16.8003Z" fill="#3FB950"/>
</g>
<defs>
<clipPath id="clip0_37_63">
<rect width="25" height="26" fill="white" transform="matrix(-1 0 0 1 25 0)"/>
</clipPath>
</defs>
</svg>
