<svg width="17" height="17" viewBox="0 0 17 17" fill="none" xmlns="http://www.w3.org/2000/svg">
<path fill-rule="evenodd" clip-rule="evenodd" d="M14.2714 14.6185C12.8923 15.5376 11.1942 16.0792 9.35786 16.0792C4.74588 16.0792 1.00712 12.6609 1.00712 8.44414C1.00712 5.52691 2.79715 2.99089 5.42772 1.70554C4.85266 2.85868 4.53206 4.1404 4.53206 5.48987C4.53206 10.4572 8.87014 14.4981 14.2714 14.6185ZM6.24673 0.372486C2.6079 1.54492 0 4.71607 0 8.44414C0 13.1694 4.18966 17 9.35786 17C11.9219 17 14.245 16.0572 15.9352 14.5301C16.3255 14.1775 16.682 13.7937 17 13.3832C16.5032 13.5135 15.9887 13.6056 15.4606 13.6559C15.1512 13.6853 14.8372 13.7004 14.5194 13.7004C9.55975 13.7004 5.53918 10.0244 5.53918 5.48987C5.53918 3.8946 6.03679 2.4056 6.89782 1.14552C7.17601 0.738406 7.49214 0.355186 7.84168 0C7.29251 0.0818021 6.75939 0.207308 6.24673 0.372486Z" fill="#fff"/>
<path fill-rule="evenodd" clip-rule="evenodd" d="M9.60709 3.53808H10.2778L9.73519 3.84939L9.94246 4.3531L9.39982 4.04179L8.85718 4.3531L9.06445 3.84939L8.52181 3.53808H9.19255L9.39982 3.03437L9.60709 3.53808Z" fill="#fff"/>
<path fill-rule="evenodd" clip-rule="evenodd" d="M14.0929 8.2984L13.848 7.71516L13.603 8.2984H12.8103L13.4516 8.65887L13.2066 9.24211L13.848 8.88165L14.4893 9.24211L14.2443 8.65887L14.8856 8.2984H14.0929Z" fill="#fff"/>
<path d="M12.7569 4.03192L13.1338 4.93329H14.3533L13.3667 5.49037L13.7435 6.39175L12.7569 5.83467L11.7703 6.39175L12.1471 5.49037L11.1605 4.93329H12.38L12.7569 4.03192Z" fill="#fff"/>
</svg>
