<svg width="26" height="25" viewBox="0 0 26 25" fill="none" xmlns="http://www.w3.org/2000/svg">
<path d="M0 2C0 0.895431 0.895431 0 2 0H10C11.1046 0 12 0.895431 12 2V10C12 11.1046 11.1046 12 10 12H2C0.895431 12 0 11.1046 0 10V2Z" fill="black"/>
<path d="M14 2C14 0.895431 14.8954 0 16 0H24C25.1046 0 26 0.895431 26 2V10C26 11.1046 25.1046 12 24 12H16C14.8954 12 14 11.1046 14 10V2Z" fill="black"/>
<path d="M0 15C0 13.8954 0.895431 13 2 13H10C11.1046 13 12 13.8954 12 15V23C12 24.1046 11.1046 25 10 25H2C0.895431 25 0 24.1046 0 23V15Z" fill="black"/>
<path d="M14 15C14 13.8954 14.8954 13 16 13H24C25.1046 13 26 13.8954 26 15V23C26 24.1046 25.1046 25 24 25H16C14.8954 25 14 24.1046 14 23V15Z" fill="black"/>
</svg>
