<svg width="20" height="20" viewBox="0 0 20 20" fill="none" xmlns="http://www.w3.org/2000/svg">
<path d="M10.0677 0.567686V4.23581C10.0677 4.27319 10.0374 4.30349 10 4.30349C9.96262 4.30349 9.93231 4.27319 9.93231 4.23581V0.567686C9.93231 0.530304 9.96262 0.5 10 0.5C10.0374 0.5 10.0677 0.530303 10.0677 0.567686ZM3.38344 3.20038L5.97719 5.79414C6.00363 5.82057 6.00363 5.86342 5.97719 5.88986C5.95076 5.91629 5.90791 5.91629 5.88147 5.88986L3.28772 3.2961C3.26129 3.26967 3.26129 3.22681 3.28772 3.20038C3.31415 3.17395 3.35701 3.17395 3.38344 3.20038ZM14.2131 14.0301L16.8069 16.6238C16.8333 16.6503 16.8333 16.6931 16.8069 16.7196C16.7805 16.746 16.7376 16.746 16.7112 16.7196L14.1174 14.1258C14.091 14.0994 14.091 14.0565 14.1174 14.0301C14.1438 14.0036 14.1867 14.0036 14.2131 14.0301ZM5.97719 14.1258L3.38344 16.7196C3.35701 16.746 3.31415 16.746 3.28772 16.7196C3.26129 16.6931 3.26129 16.6503 3.28772 16.6238L5.88147 14.0301C5.90791 14.0036 5.95076 14.0036 5.97719 14.0301C6.00363 14.0565 6.00363 14.0994 5.97719 14.1258ZM16.7196 3.2961L14.1258 5.88986C14.0994 5.91629 14.0565 5.91629 14.0301 5.88986C14.0036 5.86343 14.0036 5.82057 14.0301 5.79414L16.6238 3.20038C16.6503 3.17395 16.6931 3.17395 16.7196 3.20038C16.746 3.22682 16.746 3.26967 16.7196 3.2961ZM15.7642 9.93231H19.4323C19.4697 9.93231 19.5 9.96262 19.5 10C19.5 10.0374 19.4697 10.0677 19.4323 10.0677H15.7642C15.7268 10.0677 15.6965 10.0374 15.6965 10C15.6965 9.96262 15.7268 9.93231 15.7642 9.93231ZM0.567686 9.93231H4.23581C4.27319 9.93231 4.30349 9.96262 4.30349 10C4.30349 10.0374 4.27319 10.0677 4.23581 10.0677H0.567686C0.530303 10.0677 0.5 10.0374 0.5 10C0.5 9.96262 0.530304 9.93231 0.567686 9.93231ZM10.0677 15.7642V19.4323C10.0677 19.4697 10.0374 19.5 10 19.5C9.96262 19.5 9.93231 19.4697 9.93231 19.4323V15.7642C9.93231 15.7268 9.96262 15.6965 10 15.6965C10.0374 15.6965 10.0677 15.7268 10.0677 15.7642ZM13.5 10C13.5 11.933 11.933 13.5 10 13.5C8.067 13.5 6.5 11.933 6.5 10C6.5 8.067 8.067 6.5 10 6.5C11.933 6.5 13.5 8.067 13.5 10Z" stroke="#BE0AFA"/>
</svg>
