<svg width="37" height="22" viewBox="0 0 37 22" fill="none" xmlns="http://www.w3.org/2000/svg">
<path d="M32.6695 0.0445976C31.7082 0.0448029 30.7863 0.426857 30.1067 1.10672L18.1695 13.0438L6.23242 1.10672C5.89802 0.760499 5.49802 0.484336 5.05576 0.294353C4.6135 0.104371 4.13782 0.00437141 3.6565 0.000188828C3.17517 -0.00399376 2.69784 0.0877265 2.25234 0.269995C1.80684 0.452263 1.4021 0.721431 1.06174 1.06179C0.721376 1.40215 0.452209 1.80689 0.26994 2.25239C0.0876722 2.69789 -0.00404571 3.17523 0.000136869 3.65655C0.00431945 4.13788 0.10432 4.61355 0.294302 5.05581C0.484285 5.49808 0.760446 5.89808 1.10667 6.23247L15.6067 20.7325C16.2865 21.4121 17.2083 21.7938 18.1695 21.7938C19.1308 21.7938 20.0526 21.4121 20.7324 20.7325L35.2324 6.23247C35.7392 5.72551 36.0844 5.07966 36.2242 4.37659C36.364 3.67351 36.2922 2.94476 36.0179 2.28248C35.7436 1.62019 35.2791 1.0541 34.6831 0.655766C34.0871 0.257435 33.3864 0.0447507 32.6695 0.0445976Z" fill="#BE0AFA"/>
</svg>
