<svg width="30" height="30" viewBox="0 0 30 30" fill="none" xmlns="http://www.w3.org/2000/svg">
<path d="M0 19.385C0 19.1185 0.209867 18.9025 0.46875 18.9025H8.75C9.00888 18.9025 9.21875 19.1185 9.21875 19.385V29.5175C9.21875 29.784 9.00888 30 8.75 30H0.46875C0.209867 30 0 29.784 0 29.5175V19.385Z" fill="black"/>
<path d="M20.7812 22.4408C20.7812 22.1743 20.9911 21.9583 21.25 21.9583H29.5312C29.7901 21.9583 30 22.1743 30 22.4408V29.5175C30 29.784 29.7901 30 29.5312 30H21.25C20.9911 30 20.7812 29.784 20.7812 29.5175V22.4408Z" fill="black"/>
<path d="M10.3125 15.8466C10.3125 15.5801 10.5224 15.3641 10.7812 15.3641H19.0625C19.3214 15.3641 19.5312 15.5801 19.5312 15.8466V29.5175C19.5312 29.784 19.3214 30 19.0625 30H10.7812C10.5224 30 10.3125 29.784 10.3125 29.5175V15.8466Z" fill="black"/>
<path d="M14.7028 0.222267C14.7963 -0.0740891 15.2037 -0.0740888 15.2972 0.222267L16.6839 4.61514C16.7257 4.74767 16.8457 4.8374 16.9811 4.8374H21.4684C21.7711 4.8374 21.8969 5.23615 21.652 5.41931L18.0217 8.13425C17.9122 8.21616 17.8664 8.36135 17.9082 8.49388L19.2949 12.8868C19.3884 13.1831 19.0589 13.4295 18.814 13.2464L15.1837 10.5314C15.0742 10.4495 14.9258 10.4495 14.8163 10.5314L11.186 13.2464C10.9411 13.4295 10.6116 13.1831 10.7051 12.8868L12.0918 8.49388C12.1336 8.36135 12.0878 8.21616 11.9783 8.13425L8.34796 5.4193C8.10305 5.23615 8.22892 4.8374 8.53165 4.8374H13.0189C13.1543 4.8374 13.2743 4.74767 13.3161 4.61514L14.7028 0.222267Z" fill="black"/>
</svg>
