<svg width="16" height="16" viewBox="0 0 16 16" fill="none" xmlns="http://www.w3.org/2000/svg">
<path d="M3.34746 5.83513C3.58813 5.10526 3.97884 4.41892 4.52895 3.83301C6.48248 1.74049 9.64877 1.74049 11.6023 3.83301L12.1368 4.40887H10.5646C10.0113 4.40887 9.56438 4.88764 9.56438 5.48024C9.56438 6.07284 10.0113 6.55161 10.5646 6.55161H14.5498H14.5623C15.1155 6.55161 15.5625 6.07284 15.5625 5.48024V1.19476C15.5625 0.602164 15.1155 0.123396 14.5623 0.123396C14.0091 0.123396 13.5621 0.602164 13.5621 1.19476V2.90895L13.0151 2.3197C10.2801 -0.609822 5.84798 -0.609822 3.11303 2.3197C2.35037 3.13662 1.80026 4.0975 1.46269 5.12535C1.27827 5.68447 1.55333 6.29381 2.07219 6.49134C2.59105 6.68888 3.16304 6.39425 3.34746 5.83848V5.83513ZM1.2814 8.73787C1.12512 8.78809 0.975086 8.87849 0.853186 9.01241C0.728159 9.14633 0.643767 9.30703 0.600008 9.48113C0.590631 9.52131 0.581254 9.56483 0.575003 9.60836C0.565626 9.66527 0.5625 9.72219 0.5625 9.77911V14.0512C0.5625 14.6438 1.00947 15.1226 1.56271 15.1226C2.11595 15.1226 2.56292 14.6438 2.56292 14.0512V12.3403L3.11303 12.9263C5.84798 15.8524 10.2801 15.8524 13.012 12.9263C13.7746 12.1093 14.3279 11.1485 14.6654 10.124C14.8499 9.56483 14.5748 8.95549 14.0559 8.75796C13.5371 8.56042 12.9651 8.85505 12.7807 9.41082C12.54 10.1407 12.1493 10.827 11.5992 11.4129C9.64564 13.5055 6.47936 13.5055 4.52583 11.4129L4.5227 11.4096L3.98821 10.8371H5.56354C6.11678 10.8371 6.56375 10.3583 6.56375 9.76571C6.56375 9.17311 6.11678 8.69435 5.56354 8.69435H1.57521C1.5252 8.69435 1.47519 8.69769 1.42518 8.70439C1.37517 8.71109 1.32828 8.72113 1.2814 8.73787Z" fill="black"/>
</svg>
