<svg width="15" height="15" viewBox="0 0 15 15" fill="none" xmlns="http://www.w3.org/2000/svg">
<path d="M2.78496 5.71257C3.02563 4.9827 3.41634 4.29636 3.96645 3.71045C5.91998 1.61793 9.08627 1.61793 11.0398 3.71045L11.5743 4.28631H10.0021C9.44884 4.28631 9.00188 4.76508 9.00188 5.35768C9.00188 5.95028 9.44884 6.42905 10.0021 6.42905H13.9873H13.9998C14.553 6.42905 15 5.95028 15 5.35768V1.07221C15 0.479605 14.553 0.000837058 13.9998 0.000837058C13.4466 0.000837058 12.9996 0.479605 12.9996 1.07221V2.7864L12.4526 2.19714C9.71765 -0.732381 5.28548 -0.732381 2.55053 2.19714C1.78787 3.01406 1.23776 3.97495 0.900188 5.00279C0.715774 5.56191 0.990832 6.17125 1.50969 6.36879C2.02855 6.56632 2.60054 6.27169 2.78496 5.71592V5.71257ZM0.7189 8.61531C0.562617 8.66553 0.412586 8.75593 0.290686 8.88985C0.165659 9.02377 0.081267 9.18448 0.0375078 9.35857C0.0281309 9.39875 0.0187539 9.44227 0.0125026 9.4858C0.00312564 9.54271 0 9.59963 0 9.65655V13.9286C0 14.5212 0.446968 15 1.00021 15C1.55345 15 2.00042 14.5212 2.00042 13.9286V12.2178L2.55053 12.8037C5.28548 15.7299 9.71765 15.7299 12.4495 12.8037C13.2121 11.9868 13.7654 11.0259 14.1029 10.0014C14.2874 9.44227 14.0123 8.83293 13.4934 8.6354C12.9746 8.43787 12.4026 8.73249 12.2182 9.28827C11.9775 10.0181 11.5868 10.7045 11.0367 11.2904C9.08314 13.3829 5.91686 13.3829 3.96333 11.2904L3.9602 11.287L3.42571 10.7145H5.00104C5.55428 10.7145 6.00125 10.2358 6.00125 9.64316C6.00125 9.05056 5.55428 8.57179 5.00104 8.57179H1.01271C0.962701 8.57179 0.91269 8.57513 0.86268 8.58183C0.812669 8.58853 0.765785 8.59857 0.7189 8.61531Z" fill="white"/>
</svg>
