<svg width="8" height="13" viewBox="0 0 8 13" fill="none" xmlns="http://www.w3.org/2000/svg">
<mask id="path-1-inside-1_48_8" fill="white">
<path d="M3.93321 13L2.27042e-07 7.1074H7.86642L3.93321 13Z"/>
<path d="M4.06679 -3.12924e-07L0.133579 5.8926H8L4.06679 -3.12924e-07Z"/>
</mask>
<path d="M3.93321 13L-3.55242 17.9965L3.93321 29.2112L11.4188 17.9965L3.93321 13ZM2.27042e-07 7.1074V-1.8926H-16.8281L-7.48563 12.1039L2.27042e-07 7.1074ZM7.86642 7.1074L15.3521 12.1039L24.6945 -1.8926L7.86642 -1.8926V7.1074ZM4.06679 -3.12924e-07L11.5524 -4.99653L4.06679 -16.2112L-3.41884 -4.99653L4.06679 -3.12924e-07ZM0.133579 5.8926L-7.35205 0.896064L-16.6945 14.8926H0.133579V5.8926ZM8 5.8926V14.8926H24.8281L15.4856 0.896063L8 5.8926ZM11.4188 8.00347L7.48563 2.11087L-7.48563 12.1039L-3.55242 17.9965L11.4188 8.00347ZM2.27042e-07 16.1074H7.86642V-1.8926H2.27042e-07V16.1074ZM0.380791 2.11087L-3.55242 8.00347L11.4188 17.9965L15.3521 12.1039L0.380791 2.11087ZM-3.41884 -4.99653L-7.35205 0.896064L7.61921 10.8891L11.5524 4.99653L-3.41884 -4.99653ZM0.133579 14.8926H8V-3.1074H0.133579V14.8926ZM15.4856 0.896063L11.5524 -4.99653L-3.41884 4.99653L0.51437 10.8891L15.4856 0.896063Z" fill="black" mask="url(#path-1-inside-1_48_8)"/>
</svg>
