<svg width="70" height="45" viewBox="0 0 70 45" fill="none" xmlns="http://www.w3.org/2000/svg">
<path d="M36.7075 0.149963C36.349 0.293212 36.2807 0.423439 36.2295 0.996436L36.1783 1.67361H35.4612C34.5393 1.67361 33.9758 1.96011 33.9758 2.44195C33.9758 3.02797 34.3344 3.26238 35.3246 3.34052L36.2124 3.40563L36.1612 4.20001L36.11 4.99439L35.3417 5.03346C34.4368 5.08555 33.9758 5.35903 33.9758 5.84087C33.9758 6.32271 34.4368 6.59618 35.3417 6.64827L36.11 6.68734V7.92449V9.16165L35.3417 9.20072C34.0954 9.26583 33.9758 9.43512 33.9758 11.076V12.4824H32.8661H31.7563V10.7895V9.09653H32.5075C33.3954 9.09653 33.8051 8.8491 33.8051 8.3282C33.8051 7.82031 33.3271 7.53381 32.4734 7.53381H31.7563V7.01291C31.7563 6.42689 31.1758 5.84087 30.5954 5.84087C30.049 5.84087 29.5368 6.38782 29.5368 6.98686V7.53381H28.8197C27.9832 7.53381 27.7954 7.61195 27.5051 8.02868C27.3515 8.26308 27.3515 8.39331 27.5222 8.67981C27.7271 8.99235 27.8636 9.03142 28.649 9.07049L29.5368 9.10956V10.8025C29.5368 12.4564 29.5368 12.4954 29.1271 12.5996C28.9051 12.6647 28.6832 12.821 28.6149 12.9382C28.5636 13.0554 28.5124 14.1493 28.5124 15.3604V17.5613H26.5661C23.9027 17.5613 24.0734 17.3269 24.0734 21.1685V24.2028H22.9807H21.888L21.7856 23.4996C21.5295 21.9629 20.0271 20.3872 18.1149 19.6709C17.2612 19.3584 16.971 19.3193 15.3661 19.3193C13.7783 19.3193 13.4539 19.3584 12.6173 19.6579C12.088 19.8533 11.3539 20.2179 10.9783 20.4653L10.3124 20.9341L5.53194 19.7881C2.91974 19.15 0.717303 18.6682 0.649011 18.7203C0.597791 18.7594 0.42706 19.0979 0.290474 19.4756L0.0173035 20.1528L1.07584 20.4132C1.65633 20.5565 3.73925 21.0644 5.6856 21.5332C8.70755 22.2755 9.23682 22.4317 9.13438 22.6141C9.06608 22.7313 8.98072 23.148 8.9295 23.5126L8.82706 24.2028L4.7295 24.2289L0.631938 24.2679L0.307547 24.5935C-0.0168429 24.9321 -0.0168429 24.9321 1.99779 31.1048L4.01243 37.2776L5.03682 37.7724C5.90755 38.1892 6.19779 38.2673 7.00023 38.2673C7.76852 38.2673 8.10999 38.1892 8.96365 37.7985C10.7051 36.9911 11.5246 36.8088 13.488 36.7306C15.7417 36.6525 17.0051 36.8869 18.8149 37.6813C20.5734 38.4626 21.4612 38.4887 22.9636 37.7985C24.7051 36.9911 25.5246 36.8088 27.488 36.7306C29.7417 36.6525 31.0051 36.8869 32.8149 37.6813C34.6417 38.4887 35.3588 38.4887 37.1856 37.6813C38.9954 36.8869 40.2588 36.6525 42.5124 36.7306C44.4758 36.8088 45.2612 36.9911 47.071 37.7985C48.5905 38.4757 49.4271 38.4626 51.1856 37.6813C52.9954 36.8869 54.2588 36.6525 56.5124 36.7306C58.4758 36.8088 59.2954 36.9911 61.0368 37.7985C62.5563 38.4887 63.3929 38.4626 65.288 37.6422L66.7222 37.0302L68.3783 33.501C70.4783 29.0082 70.5295 29.1514 66.671 29.1514H64.5539L64.4515 28.6566C64.3832 28.3961 64.2636 28.0054 64.1783 27.7971C64.0929 27.5887 64.0417 27.4064 64.0588 27.3934C64.0929 27.3673 64.7758 27.2111 65.6124 27.0157C66.4319 26.8334 67.7466 26.5339 68.5319 26.3516L69.9832 26.013L69.71 25.3358C69.5734 24.9581 69.4027 24.6196 69.3344 24.5675C69.2832 24.5154 67.8319 24.8019 66.1246 25.2056L63.0344 25.9348L62.2832 25.466C59.4319 23.6819 55.3856 23.8642 53.0807 25.8697C52.3636 26.4818 51.6124 27.7189 51.4758 28.5003L51.3563 29.1254L48.6929 28.305L46.0124 27.4845L45.9271 22.7313C45.8588 18.9807 45.7905 17.9519 45.6027 17.7827C45.4149 17.6003 45.0222 17.5613 43.4344 17.5613H41.488V15.3604C41.488 14.1493 41.4368 13.0554 41.3856 12.9382C41.3173 12.821 41.0954 12.6647 40.8734 12.5996C40.4807 12.4954 40.4636 12.4434 40.4636 11.1411C40.4636 9.44815 40.31 9.22676 39.0807 9.22676H38.2441V7.93752V6.63525L39.1319 6.59618C39.9002 6.55711 40.0539 6.50502 40.2929 6.19248C40.5149 5.87994 40.5149 5.8018 40.2929 5.47623C40.0539 5.17671 39.9002 5.12462 39.1319 5.08555L38.2441 5.04648V4.20001V3.36656H38.9271C39.6954 3.36656 40.4636 2.92379 40.4636 2.48102C40.4636 2.06429 39.7466 1.67361 38.9612 1.67361H38.2441V1.11364C38.2441 0.488552 38.1417 0.345303 37.6124 0.123917C37.1685 -0.0453774 37.2368 -0.0453774 36.7075 0.149963ZM32.4051 21.0253C32.8661 21.2597 32.9173 21.9239 32.4905 22.2755C32.2685 22.4708 31.9441 22.5099 30.6466 22.5099C29.2978 22.5099 29.0417 22.4708 28.7685 22.2494C28.3588 21.8978 28.3929 21.3378 28.8539 21.0513C29.3661 20.7388 31.8246 20.7128 32.4051 21.0253ZM41.1466 21.0513C41.6075 21.3378 41.6417 21.8978 41.2319 22.2494C40.9758 22.4708 40.7027 22.5099 39.388 22.5099C37.6124 22.5099 37.2197 22.3536 37.2197 21.6504C37.2197 20.9992 37.6978 20.8169 39.371 20.8169C40.4636 20.8169 40.8563 20.869 41.1466 21.0513ZM13.6075 27.8101C15.571 28.5915 15.9295 30.7532 14.2563 31.8602C12.1905 33.2536 9.06608 32.2899 8.75877 30.1542C8.62218 29.2686 9.40755 28.2919 10.5856 27.8101C11.6612 27.3804 12.5149 27.3804 13.6075 27.8101ZM22.6222 27.9534C24.3978 28.891 24.5344 30.8704 22.8954 31.9253C20.7612 33.2796 17.5344 32.1336 17.5344 30.0109C17.5344 28.0054 20.471 26.8204 22.6222 27.9534ZM31.1246 27.8231C32.8832 28.6045 33.3441 30.4667 32.0466 31.5867C31.0222 32.4852 29.571 32.7457 28.2563 32.2899C26.9588 31.8341 26.2929 31.0527 26.2929 29.9719C26.2929 28.1096 29.0417 26.8855 31.1246 27.8231ZM63.0002 31.8602C63.4612 32.1467 63.4954 32.7066 63.0856 33.0582C62.7783 33.3187 62.488 33.3187 50.3149 33.3187C38.9441 33.3187 37.8173 33.3057 37.5271 33.0973C37.1173 32.8238 37.1344 32.2118 37.5612 31.8862C37.9027 31.6257 38.1246 31.6257 50.2636 31.6257C61.9417 31.6257 62.6417 31.6388 63.0002 31.8602Z" fill="#BE0AFA"/>
<path d="M0 39.1398V39.9081L0.921951 40.0514C1.43415 40.1295 2.44146 40.4681 3.17561 40.7937C4.78049 41.4969 5.94146 41.7183 7.68293 41.6141C8.82683 41.549 9.16829 41.4578 10.8415 40.7937C12.6341 40.0774 12.7707 40.0383 14.0171 40.0383C15.1268 40.0253 15.4341 40.0774 16.2366 40.416C19.1902 41.6271 19.0366 41.588 21.0341 41.588H22.861L24.7902 40.8197C26.6512 40.0774 26.7707 40.0383 28.0171 40.0383C29.1268 40.0253 29.4341 40.0774 30.2366 40.416C33.1732 41.6141 33.0537 41.588 35 41.588C36.9293 41.588 37.1 41.549 39.8488 40.39C40.5659 40.0774 40.9073 40.0253 41.9829 40.0383C43.2293 40.0383 43.3488 40.0644 45.2098 40.8067L47.1561 41.588H48.9829C50.9634 41.588 50.8098 41.6271 53.7634 40.416C54.5659 40.0774 54.8732 40.0253 55.9829 40.0383C57.2293 40.0383 57.3659 40.0774 59.1585 40.7937C60.8317 41.4578 61.1732 41.549 62.3171 41.6141C64.0585 41.7183 65.2195 41.4969 66.8244 40.7937C67.5585 40.4681 68.5659 40.1295 69.0781 40.0514L70 39.9081V39.1528V38.3975H69.3512C68.4805 38.3975 67.0805 38.7752 65.8171 39.3612C64.5707 39.9211 63.3244 40.1295 62.1634 39.9602C61.7195 39.8951 60.5756 39.5435 59.6195 39.1658C58.0317 38.5277 57.8098 38.4756 56.4781 38.4235C54.7195 38.3584 53.5073 38.5928 51.9024 39.3221C49.7512 40.2858 48.3854 40.2597 45.6195 39.1658C44.0317 38.5277 43.8098 38.4756 42.478 38.4235C40.8561 38.3584 39.439 38.5928 38.4146 39.1007C36.0756 40.2597 34.3512 40.3248 32.0634 39.3091C30.3732 38.5668 29.2805 38.3584 27.539 38.4235C26.2244 38.4756 26.0024 38.5277 24.1585 39.244C22.3317 39.9472 22.1268 39.9993 21.0171 39.9993C19.7537 39.9993 19.8902 40.0383 17.0732 38.9054C15.9976 38.4756 15.8951 38.4626 14.0683 38.4626H12.1732L10.1927 39.2309C8.31463 39.9602 8.1439 39.9993 7 39.9863C6.06098 39.9863 5.6 39.9081 4.98537 39.6737C4.54146 39.4914 3.70488 39.1658 3.10732 38.9314C2.39024 38.6449 1.69024 38.4756 1.02439 38.4366L0 38.3584V39.1398Z" fill="#628395"/>
<path d="M0.119512 41.7443C0.0512195 41.7834 0 42.1611 0 42.5648V43.3071L0.768293 43.3722C1.17805 43.4112 1.89512 43.5936 2.33902 43.7889C5.97561 45.3256 7.73415 45.3777 11.0463 44.0624C12.7024 43.3982 12.9073 43.3461 13.9829 43.3461C15.0585 43.3461 15.2976 43.3982 17.0049 44.0624C20.2317 45.3125 21.9049 45.3125 25.0463 44.0624C26.7024 43.3982 26.9073 43.3461 28 43.3461C29.1098 43.3461 29.3146 43.3982 30.9537 44.0493C34.1122 45.3125 35.8878 45.3125 39.0293 44.0624C40.6854 43.3982 40.8902 43.3461 42 43.3461C43.0927 43.3461 43.2976 43.3982 44.9537 44.0624C48.0781 45.3125 49.9049 45.3125 53.0293 44.0624C54.6854 43.3982 54.8902 43.3461 56 43.3461C57.0927 43.3461 57.2976 43.3982 58.9537 44.0624C62.2659 45.3777 64.0244 45.3256 67.661 43.7889C68.1049 43.5936 68.822 43.4112 69.2317 43.3722L70 43.3071V42.5517C70 42.135 69.9317 41.7704 69.8463 41.7313C69.4707 41.549 67.5927 41.9787 66.0732 42.5908C64.6561 43.1768 64.2976 43.268 63.2049 43.3201C61.9585 43.3852 61.9415 43.3722 60.0463 42.6429C56.7854 41.3927 55.0439 41.3797 52.0732 42.5908C50.622 43.1898 50.3146 43.268 49.1707 43.3201L47.8902 43.3722L46.0634 42.6429C42.9049 41.3797 41.0951 41.3797 37.9537 42.6299C36.2976 43.294 36.0927 43.3461 35 43.3461C33.8902 43.3461 33.6854 43.294 32.0463 42.6429C28.8878 41.3797 27.1122 41.3797 23.9707 42.6299C22.3146 43.294 22.1098 43.3461 21 43.3461C19.9073 43.3461 19.7024 43.294 18.0634 42.6429C14.9049 41.3797 13.2317 41.3797 9.95366 42.6429C8.05854 43.3722 8.04146 43.3852 6.79512 43.3201C5.70244 43.268 5.3439 43.1768 3.92683 42.5908C2.93659 42.1871 1.9122 41.8746 1.29756 41.7964C0.0853659 41.6271 0.256098 41.6402 0.119512 41.7443Z" fill="#628395"/>
<path d="M0.119512 41.7443C0.0512195 41.7834 0 42.1611 0 42.5648V43.3071L0.768293 43.3722C1.17805 43.4112 1.89512 43.5936 2.33902 43.7889C5.97561 45.3256 7.73415 45.3777 11.0463 44.0624C12.7024 43.3982 12.9073 43.3461 13.9829 43.3461C15.0585 43.3461 15.2976 43.3982 17.0049 44.0624C20.2317 45.3125 21.9049 45.3125 25.0463 44.0624C26.7024 43.3982 26.9073 43.3461 28 43.3461C29.1098 43.3461 29.3146 43.3982 30.9537 44.0493C34.1122 45.3125 35.8878 45.3125 39.0293 44.0624C40.6854 43.3982 40.8902 43.3461 42 43.3461C43.0927 43.3461 43.2976 43.3982 44.9537 44.0624C48.0781 45.3125 49.9049 45.3125 53.0293 44.0624C54.6854 43.3982 54.8902 43.3461 56 43.3461C57.0927 43.3461 57.2976 43.3982 58.9537 44.0624C62.2659 45.3777 64.0244 45.3256 67.661 43.7889C68.1049 43.5936 68.822 43.4112 69.2317 43.3722L70 43.3071V42.5517C70 42.135 69.9317 41.7704 69.8463 41.7313C69.4707 41.549 67.5927 41.9787 66.0732 42.5908C64.6561 43.1768 64.2976 43.268 63.2049 43.3201C61.9585 43.3852 61.9415 43.3722 60.0463 42.6429C56.7854 41.3927 55.0439 41.3797 52.0732 42.5908C50.622 43.1898 50.3146 43.268 49.1707 43.3201L47.8902 43.3722L46.0634 42.6429C42.9049 41.3797 41.0951 41.3797 37.9537 42.6299C36.2976 43.294 36.0927 43.3461 35 43.3461C33.8902 43.3461 33.6854 43.294 32.0463 42.6429C28.8878 41.3797 27.1122 41.3797 23.9707 42.6299C22.3146 43.294 22.1098 43.3461 21 43.3461C19.9073 43.3461 19.7024 43.294 18.0634 42.6429C14.9049 41.3797 13.2317 41.3797 9.95366 42.6429C8.05854 43.3722 8.04146 43.3852 6.79512 43.3201C5.70244 43.268 5.3439 43.1768 3.92683 42.5908C2.93659 42.1871 1.9122 41.8746 1.29756 41.7964C0.0853659 41.6271 0.256098 41.6402 0.119512 41.7443Z" fill="#628395"/>
</svg>
